<svg width="50" height="50" viewBox="0 0 50 50" fill="none" xmlns="http://www.w3.org/2000/svg">
<path d="M9.49985 34.8694C6.71414 37.5717 10.3689 40.4646 4.76175 44.3931C4.76175 44.3931 8.05937 45.5002 11.0475 41.7383C12.0713 40.4408 13.2617 39.905 13.2617 39.905C13.6665 40.1431 13.357 41.4646 11.9165 42.5479C11.9165 42.5479 14.1665 42.6075 15.5713 41.2027C16.976 39.7979 17.9284 37.7742 17.9284 37.7742C18.8927 39.4646 16.476 41.6075 16.476 41.6075C16.476 41.6075 18.7499 41.0123 21.4523 38.3098C23.5475 36.2146 25.0475 30.9883 22.0356 27.9883C19.0237 24.9883 13.6546 25.5242 11.0237 28.1669C9.86889 29.3217 8.69033 31.1194 8.53556 32.5956C8.53556 32.5956 10.7499 30.2027 11.5356 31.2146C11.5356 31.2146 7.78556 33.4765 7.17842 35.6313C7.19033 35.6313 9.05937 34.5123 9.49985 34.8694Z" fill="url(#paint0_linear_5_82)"/>
<path d="M7.42864 36.9294C4.51197 38.096 6.39293 40.5483 5.13101 41.8102C5.13101 41.8102 6.8096 40.8935 6.78578 39.096C6.76197 37.6317 7.42864 36.9294 7.42864 36.9294Z" fill="url(#paint1_linear_5_82)"/>
<path d="M8.10699 45.441C8.85699 45.3577 10.1189 43.1792 11.8332 43.5362C11.8332 43.5362 10.2975 45.7744 8.10699 45.441Z" fill="url(#paint2_linear_5_82)"/>
<path opacity="0.5" d="M17.3332 41.0717C18.2499 40.7265 19.8094 39.9646 21.4523 38.3098C23.2975 36.4646 24.8333 31.2265 21.8094 28.2146C18.857 25.2623 13.6785 25.8575 11.1904 28.3456C10.2975 29.2383 9.34514 30.5838 8.96418 31.8217C9.49989 31.3456 10.2975 30.7504 10.9642 30.679C11.3094 30.6431 11.5832 30.7623 11.7737 31.0004L11.9642 31.2383L11.6309 31.4408C11.5951 31.4646 8.69037 33.2383 7.70229 35.0479C8.38085 34.7027 9.30941 34.3217 9.69037 34.6313L9.90466 34.8098L9.65466 35.0598C8.61896 36.0717 8.55941 37.1075 8.51181 38.3098C8.42848 40.0361 8.33323 41.9765 5.40466 44.2265C6.40466 44.3575 8.67848 44.2979 10.8332 41.5956C11.9047 40.2383 13.1427 39.6671 13.1904 39.6431L13.3332 39.5838L13.4404 39.6431C13.6427 39.7623 13.738 40.0242 13.7023 40.3694C13.6547 40.8456 13.3451 41.5242 12.6785 42.2146C13.4166 42.1194 14.5713 41.8456 15.3927 41.0242C16.738 39.679 17.6666 37.7265 17.6785 37.7027L17.9404 37.1431L18.1904 37.5838C18.8332 38.7265 18.1189 40.1194 17.3332 41.0717Z" fill="url(#paint3_linear_5_82)"/>
<path d="M5.13101 41.8102C5.95245 41.1435 6.79768 39.8342 6.78578 39.096C6.77387 38.4175 6.96435 37.465 7.42864 36.9294C5.38101 37.7983 5.66672 39.1675 5.92864 39.846C6.04768 40.1435 5.89291 41.0246 5.13101 41.8102Z" fill="url(#paint4_radial_5_82)"/>
<path d="M6.71439 43.8221C10.5953 42.5483 11.6311 38.1435 14.1192 37.3817C16.6192 36.6198 15.9882 39.0008 15.0239 40.0842C15.0239 40.0842 18.3215 36.7746 18.3334 34.1913C18.3572 31.6079 21.8215 35.6435 20.7501 37.7388C20.7501 37.7388 26.0477 32.4413 21.8096 28.215C17.5715 23.9888 11.9406 28.2031 11.9406 28.2031C11.9406 28.2031 15.1549 28.0721 14.8692 30.4054C14.8692 30.4054 12.3929 31.346 10.4406 32.9054C10.4406 32.9054 11.393 33.0127 12.0477 33.9888C12.0477 33.9888 9.13105 36.0008 9.25009 37.7269C9.41676 39.9531 7.96439 43.4175 6.71439 43.8221Z" fill="url(#paint5_linear_5_82)"/>
<path d="M9.42841 40.4764C11.2379 40.0239 12.8332 35.7858 15.3808 36.0239C16.7856 36.155 16.4641 37.3692 16.4641 37.3692C16.4641 37.3692 17.4403 35.9764 17.6665 34.1073C17.8927 32.2383 21.3808 32.8692 21.2261 36.3931C21.2261 36.3931 25.0594 31.405 20.4046 28.2264C15.2737 24.7264 11.5118 29.1192 11.5118 29.1192C11.5118 29.1192 15.0237 27.9525 15.5713 30.7383C15.5713 30.7383 12.6665 31.5477 11.5951 32.6192C11.5951 32.6192 12.8332 32.7977 13.1308 34.1192C13.1308 34.1192 10.2737 36.2144 10.357 37.0477C10.5594 39.0358 9.42841 40.4764 9.42841 40.4764Z" fill="url(#paint6_linear_5_82)"/>
<path opacity="0.5" d="M9.49985 34.8694C6.71414 37.5717 10.3689 40.4646 4.76175 44.3931C4.76175 44.3931 8.05937 45.5002 11.0475 41.7383C12.0713 40.4408 13.2617 39.905 13.2617 39.905C13.6665 40.1431 13.357 41.4646 11.9165 42.5479C11.9165 42.5479 14.1665 42.6075 15.5713 41.2027C16.976 39.7979 17.9284 37.7742 17.9284 37.7742C18.8927 39.4646 16.476 41.6075 16.476 41.6075C16.476 41.6075 18.7499 41.0123 21.4523 38.3098C23.5475 36.2146 25.0475 30.9883 22.0356 27.9883C19.0237 24.9883 13.6546 25.5242 11.0237 28.1669C9.86889 29.3217 8.69033 31.1194 8.53556 32.5956C8.53556 32.5956 10.7499 30.2027 11.5356 31.2146C11.5356 31.2146 7.78556 33.4765 7.17842 35.6313C7.19033 35.6313 9.05937 34.5123 9.49985 34.8694Z" fill="url(#paint7_radial_5_82)"/>
<path opacity="0.5" d="M9.49985 34.8694C6.71414 37.5717 10.3689 40.4646 4.76175 44.3931C4.76175 44.3931 8.05937 45.5002 11.0475 41.7383C12.0713 40.4408 13.2617 39.905 13.2617 39.905C13.6665 40.1431 13.357 41.4646 11.9165 42.5479C11.9165 42.5479 14.1665 42.6075 15.5713 41.2027C16.976 39.7979 17.9284 37.7742 17.9284 37.7742C18.8927 39.4646 16.476 41.6075 16.476 41.6075C16.476 41.6075 18.7499 41.0123 21.4523 38.3098C23.5475 36.2146 25.0475 30.9883 22.0356 27.9883C19.0237 24.9883 13.6546 25.5242 11.0237 28.1669C9.86889 29.3217 8.69033 31.1194 8.53556 32.5956C8.53556 32.5956 10.7499 30.2027 11.5356 31.2146C11.5356 31.2146 7.78556 33.4765 7.17842 35.6313C7.19033 35.6313 9.05937 34.5123 9.49985 34.8694Z" fill="url(#paint8_radial_5_82)"/>
<path d="M20.0475 39.2029C22.7619 36.31 24.2975 31.1433 21.4642 28.31C18.6308 25.4767 13.4166 27.8577 11.107 29.9885C11.107 29.9885 12.9523 29.2148 14.4047 30.1433C15.857 31.0719 11.7023 32.6792 10.8332 35.2267C10.8332 35.2267 14.5356 33.0004 15.7023 33.941C16.869 34.8815 15.6904 37.8458 14.5713 38.9648C14.5713 38.9648 17.2261 37.6077 18.6547 35.8577C20.8332 33.1792 20.0475 39.2029 20.0475 39.2029Z" fill="url(#paint9_radial_5_82)"/>
<path opacity="0.5" d="M9.49985 34.8694C6.71414 37.5717 10.3689 40.4646 4.76175 44.3931C4.76175 44.3931 8.05937 45.5002 11.0475 41.7383C12.0713 40.4408 13.2617 39.905 13.2617 39.905C13.6665 40.1431 13.357 41.4646 11.9165 42.5479C11.9165 42.5479 14.1665 42.6075 15.5713 41.2027C16.976 39.7979 17.9284 37.7742 17.9284 37.7742C18.8927 39.4646 16.476 41.6075 16.476 41.6075C16.476 41.6075 18.7499 41.0123 21.4523 38.3098C23.5475 36.2146 25.0475 30.9883 22.0356 27.9883C19.0237 24.9883 13.6546 25.5242 11.0237 28.1669C9.86889 29.3217 8.69033 31.1194 8.53556 32.5956C8.53556 32.5956 10.7499 30.2027 11.5356 31.2146C11.5356 31.2146 7.78556 33.4765 7.17842 35.6313C7.19033 35.6313 9.05937 34.5123 9.49985 34.8694Z" fill="url(#paint10_radial_5_82)"/>
<path opacity="0.5" d="M7.42864 36.9294C4.51197 38.096 6.39293 40.5483 5.13101 41.8102C5.13101 41.8102 6.8096 40.8935 6.78578 39.096C6.76197 37.6317 7.42864 36.9294 7.42864 36.9294Z" fill="url(#paint11_radial_5_82)"/>
<path d="M8.10699 45.4402C8.85699 45.3569 9.95222 43.8211 11.8332 43.5354C11.8332 43.5354 10.2975 45.7736 8.10699 45.4402Z" fill="url(#paint12_radial_5_82)"/>
<path opacity="0.5" d="M8.10699 45.441C8.85699 45.3577 10.1189 43.1792 11.8332 43.5362C11.8332 43.5362 10.2975 45.7744 8.10699 45.441Z" fill="url(#paint13_radial_5_82)"/>
<path opacity="0.5" d="M9.49985 34.8694C6.71414 37.5717 10.3689 40.4646 4.76175 44.3931C4.76175 44.3931 8.05937 45.5002 11.0475 41.7383C12.0713 40.4408 13.2617 39.905 13.2617 39.905C13.6665 40.1431 13.357 41.4646 11.9165 42.5479C11.9165 42.5479 14.1665 42.6075 15.5713 41.2027C16.976 39.7979 17.9284 37.7742 17.9284 37.7742C18.8927 39.4646 16.476 41.6075 16.476 41.6075C16.476 41.6075 18.7499 41.0123 21.4523 38.3098C23.5475 36.2146 25.0475 30.9883 22.0356 27.9883C19.0237 24.9883 13.6546 25.5242 11.0237 28.1669C9.86889 29.3217 8.69033 31.1194 8.53556 32.5956C8.53556 32.5956 10.7499 30.2027 11.5356 31.2146C11.5356 31.2146 7.78556 33.4765 7.17842 35.6313C7.19033 35.6313 9.05937 34.5123 9.49985 34.8694Z" fill="url(#paint14_radial_5_82)"/>
<path opacity="0.25" d="M9.49985 34.8694C6.71414 37.5717 10.3689 40.4646 4.76175 44.3931C4.76175 44.3931 8.05937 45.5002 11.0475 41.7383C12.0713 40.4408 13.2617 39.905 13.2617 39.905C13.6665 40.1431 13.357 41.4646 11.9165 42.5479C11.9165 42.5479 14.1665 42.6075 15.5713 41.2027C16.976 39.7979 17.9284 37.7742 17.9284 37.7742C18.8927 39.4646 16.476 41.6075 16.476 41.6075C16.476 41.6075 18.7499 41.0123 21.4523 38.3098C23.5475 36.2146 25.0475 30.9883 22.0356 27.9883C19.0237 24.9883 13.6546 25.5242 11.0237 28.1669C9.86889 29.3217 8.69033 31.1194 8.53556 32.5956C8.53556 32.5956 10.7499 30.2027 11.5356 31.2146C11.5356 31.2146 7.78556 33.4765 7.17842 35.6313C7.19033 35.6313 9.05937 34.5123 9.49985 34.8694Z" fill="url(#paint15_radial_5_82)"/>
<path opacity="0.75" d="M9.49985 34.8694C6.71414 37.5717 10.3689 40.4646 4.76175 44.3931C4.76175 44.3931 8.05937 45.5002 11.0475 41.7383C12.0713 40.4408 13.2617 39.905 13.2617 39.905C13.6665 40.1431 13.357 41.4646 11.9165 42.5479C11.9165 42.5479 14.1665 42.6075 15.5713 41.2027C16.976 39.7979 17.9284 37.7742 17.9284 37.7742C18.8927 39.4646 16.476 41.6075 16.476 41.6075C16.476 41.6075 18.7499 41.0123 21.4523 38.3098C23.5475 36.2146 25.0475 30.9883 22.0356 27.9883C19.0237 24.9883 13.6546 25.5242 11.0237 28.1669C9.86889 29.3217 8.69033 31.1194 8.53556 32.5956C8.53556 32.5956 10.7499 30.2027 11.5356 31.2146C11.5356 31.2146 7.78556 33.4765 7.17842 35.6313C7.19033 35.6313 9.05937 34.5123 9.49985 34.8694Z" fill="url(#paint16_radial_5_82)"/>
<path d="M31.9877 32.2148C31.7138 29.5602 32.3329 26.7388 33.7377 24.1911L34.1781 23.3815L27.309 27.8696L26.7377 32.0006L24.059 34.5721C24.6304 36.8102 24.6544 39.0006 24.6544 39.0006C29.2138 36.2744 31.9877 32.2148 31.9877 32.2148Z" fill="url(#paint17_linear_5_82)"/>
<path d="M24.6665 39.0121C24.6665 39.0121 24.6546 36.7977 24.0713 34.5835L25.2023 33.5002C25.5475 34.2621 26.226 35.9765 26.3927 37.8692C25.845 38.2502 25.2735 38.655 24.6665 39.0121Z" fill="url(#paint18_linear_5_82)"/>
<path opacity="0.75" d="M31.9877 32.2148C31.7138 29.5602 32.3329 26.7388 33.7377 24.1911L34.1781 23.3815L27.309 27.8696L26.7377 32.0006L24.059 34.5721C24.6304 36.8102 24.6544 39.0006 24.6544 39.0006C29.2138 36.2744 31.9877 32.2148 31.9877 32.2148Z" fill="url(#paint19_radial_5_82)"/>
<path d="M32.6544 26.6546C32.9402 25.8212 33.2973 24.9879 33.7377 24.1902L33.9877 23.7379C33.9281 23.7023 33.8688 23.6665 33.8092 23.6308L27.321 27.8808L26.9281 30.6665C28.4044 30.0594 30.4996 28.8212 32.6544 26.6546Z" fill="url(#paint20_linear_5_82)"/>
<path d="M25.2021 16.3096C25.1306 16.143 25.0948 16.0239 25.0354 15.8691C22.4758 17.0834 19.583 17.4287 16.7973 16.9048C16.7973 16.9048 12.6782 19.6072 10.1425 24.3929C10.1425 24.3929 12.4997 24.6192 14.9758 25.4644L17.5116 22.7381L21.6069 22.5C22.5235 20.4406 23.6306 18.2382 25.2021 16.3096Z" fill="url(#paint21_linear_5_82)"/>
<path d="M10.1425 24.3808C10.1425 24.3808 12.4997 24.6071 14.9759 25.4523L16.0592 24.2856C15.1901 23.8333 13.3092 22.9642 11.2259 22.5952C10.8449 23.1548 10.4759 23.75 10.1425 24.3808Z" fill="url(#paint22_linear_5_82)"/>
<path opacity="0.75" d="M25.2021 16.3096C25.1306 16.143 25.0948 16.0239 25.0354 15.8691C22.4758 17.0834 19.583 17.4287 16.7973 16.9048C16.7973 16.9048 12.6782 19.6072 10.1425 24.3929C10.1425 24.3929 12.4997 24.6192 14.9758 25.4644L17.5116 22.7381L21.6069 22.5C22.5235 20.4406 23.6306 18.2382 25.2021 16.3096Z" fill="url(#paint23_radial_5_82)"/>
<path d="M25.0356 15.8569C24.0356 16.6188 20.9048 19.6426 19.8094 22.5831L21.5952 22.476C22.5119 20.4403 23.9048 18.1903 25.476 16.2617L25.0356 15.8569Z" fill="url(#paint24_linear_5_82)"/>
<path d="M26.119 15.2746C27.1785 17.0008 28.5833 18.7151 30.1427 20.2389C30.2142 20.3103 30.2975 20.3818 30.369 20.4532C31.6904 21.715 33.119 22.8342 34.5715 23.7271C34.7023 23.596 34.8333 23.4771 34.9642 23.346C38.7142 19.5961 40.8927 16.7746 42.7619 13.1913C41.4285 10.6079 39.2381 8.41747 36.6548 7.08414C33.0715 8.95318 30.2619 11.1198 26.5 14.8818C26.369 15.0127 26.2381 15.1437 26.119 15.2746Z" fill="url(#paint25_linear_5_82)"/>
<path d="M42.7496 13.1908C45.2852 8.32174 44.964 5.70267 44.5473 5.28601C44.1306 4.86934 41.5234 4.54792 36.6425 7.08363C39.2259 8.41696 41.4163 10.6074 42.7496 13.1908Z" fill="url(#paint26_linear_5_82)"/>
<path d="M21.8212 28.024C23.1667 29.3694 24.4046 30.3573 24.7379 30.3573C27.7619 29.036 31.3689 26.8217 34.5714 23.7265C33.1308 22.8335 31.6904 21.7146 30.3689 20.4526C30.2975 20.3812 30.2142 20.3098 30.1427 20.2383C28.5833 18.7145 27.1785 17.0002 26.1189 15.274C23.0237 18.4764 20.8094 22.1073 19.488 25.1313C19.5356 25.5002 20.4999 26.7146 21.8212 28.024Z" fill="url(#paint27_linear_5_82)"/>
<path opacity="0.75" d="M21.8212 28.024C23.1667 29.3694 24.4046 30.3573 24.7379 30.3573C27.7619 29.036 31.3689 26.8217 34.5714 23.7265C33.1308 22.8335 31.6904 21.7146 30.3689 20.4526C30.2975 20.3812 30.2142 20.3098 30.1427 20.2383C28.5833 18.7145 27.1785 17.0002 26.1189 15.274C23.0237 18.4764 20.8094 22.1073 19.488 25.1313C19.5356 25.5002 20.4999 26.7146 21.8212 28.024Z" fill="url(#paint28_radial_5_82)"/>
<path opacity="0.5" d="M30.3689 20.4526C30.2975 20.3812 30.2142 20.3098 30.1427 20.2383C28.5833 18.7145 27.1785 17.0002 26.1189 15.274C26.0356 15.3574 25.9642 15.4407 25.8927 15.524C28.0594 19.6193 34.6785 23.524 29.6308 25.5835C26.3214 26.9406 24.8333 28.5479 24.0356 29.9765C24.3689 30.2265 24.6308 30.3573 24.75 30.3573C27.7737 29.036 31.3808 26.8217 34.5833 23.7265C33.1189 22.8335 31.6904 21.7146 30.3689 20.4526Z" fill="url(#paint29_radial_5_82)"/>
<path d="M21.8211 28.0242C20.5116 26.7146 19.5473 25.5002 19.4878 25.1313L17.6306 25.9527C17.4163 26.1669 18.6306 27.7502 20.3687 29.4765C22.0948 31.2027 23.6781 32.4288 23.8925 32.2146L24.7377 30.3575C24.4044 30.3575 23.1663 29.3694 21.8211 28.0242Z" fill="url(#paint30_linear_5_82)"/>
<path d="M21.8211 28.0242C20.5116 26.7146 19.5473 25.5002 19.4878 25.1313L17.6306 25.9527C17.4163 26.1669 18.6306 27.7502 20.3687 29.4765C22.0948 31.2027 23.6781 32.4288 23.8925 32.2146L24.7377 30.3575C24.4044 30.3575 23.1663 29.3694 21.8211 28.0242Z" fill="url(#paint31_linear_5_82)"/>
<path d="M42.2381 14.1437C42.2619 14.108 42.7381 13.227 42.75 13.1913C41.4167 10.608 39.226 8.41747 36.6427 7.08414C36.6071 7.10795 36.5714 7.11985 36.5356 7.14366C39.0714 8.58414 41.9404 11.8222 42.2381 14.1437Z" fill="url(#paint32_linear_5_82)"/>
<path opacity="0.75" d="M44.5477 5.28601C44.131 4.86934 41.524 4.54792 36.6429 7.08363C33.0596 8.95267 30.2502 11.1194 26.4881 14.8813C26.3573 15.0122 26.2381 15.1432 26.1073 15.2741C23.0121 18.4765 20.7978 22.1075 19.4763 25.1313C19.5358 25.5002 20.5001 26.7146 21.8096 28.0242C23.1548 29.3694 24.3929 30.3575 24.7263 30.3575C27.7502 29.036 31.3573 26.8217 34.5596 23.7265C34.6906 23.5956 34.8217 23.4765 34.9525 23.3456C38.7025 19.5955 40.881 16.7741 42.7502 13.1908C45.2977 8.32174 44.9763 5.70267 44.5477 5.28601Z" fill="url(#paint33_radial_5_82)"/>
<path d="M18.9403 34.0963C22.9402 30.87 26.0713 27.2748 26.1546 27.1796L25.5354 26.5604C25.5354 26.5604 22.2735 30.12 18.3807 33.5367L18.9403 34.0963Z" fill="url(#paint34_linear_5_82)"/>
<path d="M25.5236 26.5602C26.2498 25.1794 27.4758 23.4412 29.0473 21.5723C29.0117 21.5365 28.9758 21.5008 28.9283 21.465C27.2258 23.0842 25.5354 24.5483 24.0235 25.8342L22.2617 28.4175L19.6068 31.0246C19.1425 32.1912 18.3568 33.5365 18.3568 33.5365C22.2617 30.1198 25.5236 26.5602 25.5236 26.5602Z" fill="url(#paint35_linear_5_82)"/>
<path d="M19.7495 32.2981C19.7495 32.2981 20.6781 30.6196 20.5947 30.0721L19.6185 31.0362C19.1543 32.2029 18.3685 33.5481 18.3685 33.5481C18.8447 33.1196 19.2971 32.7029 19.7495 32.2981Z" fill="url(#paint36_linear_5_82)"/>
<path d="M26.1546 27.18C26.6783 25.5848 27.8569 23.7992 29.3688 21.8585C29.2617 21.7633 29.1665 21.6681 29.0594 21.5729C27.4879 23.4419 26.2617 25.18 25.5354 26.561C25.5354 26.561 22.2735 30.1204 18.3807 33.5371L18.9522 34.0967C22.9879 30.8348 26.1546 27.18 26.1546 27.18Z" fill="url(#paint37_linear_5_82)"/>
<path d="M18.9403 34.0963C22.9402 30.87 26.0713 27.2748 26.1546 27.1796L25.5354 26.5604C25.5354 26.5604 22.2735 30.12 18.3807 33.5367L18.9403 34.0963Z" fill="url(#paint38_linear_5_82)"/>
<path opacity="0.75" d="M25.5236 26.5602C26.2498 25.1794 27.4758 23.4412 29.0473 21.5723C29.0117 21.5365 28.9758 21.5008 28.9283 21.465C27.2258 23.0842 25.5354 24.5483 24.0235 25.8342L22.2617 28.4175L19.6068 31.0246C19.1425 32.1912 18.3568 33.5365 18.3568 33.5365C22.2617 30.1198 25.5236 26.5602 25.5236 26.5602Z" fill="url(#paint39_radial_5_82)"/>
<path opacity="0.75" d="M44.5477 5.28601C44.131 4.86934 41.524 4.54792 36.6429 7.08363C33.0596 8.95267 30.2502 11.1194 26.4881 14.8813C26.3573 15.0122 26.2381 15.1432 26.1073 15.2741C23.0121 18.4765 20.7978 22.1075 19.4763 25.1313C19.5358 25.5002 20.5001 26.7146 21.8096 28.0242C23.1548 29.3694 24.3929 30.3575 24.7263 30.3575C27.7502 29.036 31.3573 26.8217 34.5596 23.7265C34.6906 23.5956 34.8217 23.4765 34.9525 23.3456C38.7025 19.5955 40.881 16.7741 42.7502 13.1908C45.2977 8.32174 44.9763 5.70267 44.5477 5.28601Z" fill="url(#paint40_radial_5_82)"/>
<g opacity="0.16">
<path opacity="0.16" d="M36.0356 22.2741C34.4642 21.3456 32.8331 20.0837 31.2856 18.548C29.7498 17.0123 28.4879 15.3813 27.5594 13.798" stroke="black" stroke-width="0.5" stroke-miterlimit="10" stroke-linecap="round" stroke-linejoin="round"/>
<path opacity="0.16" d="M40.7023 13.7868C41.0594 14.2273 41.3808 14.6558 41.6904 15.0844" stroke="black" stroke-width="0.5" stroke-miterlimit="10" stroke-linecap="round" stroke-linejoin="round"/>
<path opacity="0.0256" d="M38.7733 8.40555C38.6185 8.51269 38.4638 8.63174 38.3092 8.75078C35.19 11.0841 32.5471 13.4294 28.7971 17.1794C28.6663 17.3103 28.5352 17.4413 28.4163 17.5722C28.2971 17.7032 28.1663 17.8222 28.0471 17.9532" stroke="black" stroke-width="0.5" stroke-miterlimit="10" stroke-linecap="round" stroke-linejoin="round"/>
<path opacity="0.16" d="M34.3806 21.1914C37.6781 17.8343 39.7854 15.2867 41.7734 12.2152C41.8567 12.0962 41.9281 11.9772 41.9996 11.8581" stroke="black" stroke-width="0.5" stroke-miterlimit="10" stroke-linecap="round" stroke-linejoin="round"/>
</g>
<path opacity="0.75" d="M23.8927 29.5119C26.6308 27.9167 30.0237 25.4644 33.2023 22.3571L23.8927 29.5119Z" fill="url(#paint41_radial_5_82)"/>
<path d="M36.1663 15.5956C34.6425 17.0003 32.3806 17.0123 31.1185 15.6194C29.8567 14.2265 30.0829 11.9527 31.6067 10.548C33.1306 9.1432 35.3925 9.1313 36.6544 10.5242C37.9163 11.917 37.69 14.1908 36.1663 15.5956Z" fill="url(#paint42_linear_5_82)"/>
<path d="M35.5115 14.8095C34.2615 15.9643 32.4044 15.9762 31.3687 14.8333C30.3329 13.6905 30.5115 11.8214 31.7733 10.6666C33.0235 9.5119 34.8806 9.49998 35.9162 10.6429C36.9402 11.7857 36.7615 13.6548 35.5115 14.8095Z" fill="url(#paint43_linear_5_82)"/>
<path d="M35.214 14.5004C34.0948 15.5361 32.44 15.5361 31.5233 14.5242C30.6067 13.5004 30.7615 11.8456 31.8804 10.8099C32.9996 9.7742 34.6544 9.7742 35.5711 10.7861C36.4877 11.798 36.3329 13.4647 35.214 14.5004Z" fill="url(#paint44_radial_5_82)"/>
<path opacity="0.5" d="M35.214 14.5004C34.0948 15.5361 32.44 15.5361 31.5233 14.5242C30.6067 13.5004 30.7615 11.8456 31.8804 10.8099C32.9996 9.7742 34.6544 9.7742 35.5711 10.7861C36.4877 11.798 36.3329 13.4647 35.214 14.5004Z" fill="url(#paint45_radial_5_82)"/>
<path opacity="0.5" d="M35.3567 11.5484C35.7733 12.0127 35.9996 12.596 36.0471 13.2032C36.309 12.3579 36.1663 11.4413 35.571 10.7865C34.6544 9.7627 32.9996 9.7746 31.8804 10.8103C31.7733 10.9175 31.6663 11.0246 31.571 11.1437C32.8448 10.3698 34.4163 10.5127 35.3567 11.5484Z" fill="black"/>
<path d="M35.5711 10.7865C34.6544 9.7627 32.9996 9.7746 31.8804 10.8103C30.7615 11.846 30.6067 13.5008 31.5233 14.5246C31.6185 14.6317 31.7138 14.7032 31.6544 14.6556C30.8329 13.8341 31.0829 12.1437 32.1425 11.0841C32.9996 10.227 34.6425 9.91747 35.5711 10.7865Z" fill="url(#paint46_linear_5_82)"/>
<path opacity="0.5" d="M35.5712 10.7861C34.6427 9.90515 32.9879 10.2266 32.1427 11.0718C31.1308 12.0837 30.8571 13.6789 31.5475 14.5361C31.6546 14.5956 31.7023 14.7028 31.6427 14.6552C31.6071 14.6194 31.5713 14.5837 31.5475 14.5361C31.5356 14.5361 31.5237 14.5242 31.5117 14.5242C32.4283 15.548 34.0831 15.5361 35.2023 14.5004C36.3331 13.4647 36.4998 11.8099 35.5712 10.7861Z" fill="url(#paint47_radial_5_82)"/>
<path d="M42.7735 13.155C41.4402 10.5716 39.2735 8.39306 36.6902 7.05972" stroke="#008EE6" stroke-width="0.75" stroke-miterlimit="10" stroke-linecap="round" stroke-linejoin="round"/>
<path d="M34.5715 23.7265C33.1308 22.8335 31.6904 21.7146 30.369 20.4526C30.2975 20.3812 30.2142 20.3098 30.1427 20.2383C28.5833 18.7145 27.1785 17.0002 26.119 15.274" stroke="#008EE6" stroke-width="0.75" stroke-miterlimit="10" stroke-linecap="round" stroke-linejoin="round"/>
<defs>
<linearGradient id="paint0_linear_5_82" x1="21.3727" y1="26.4313" x2="2.41595" y2="51.4573" gradientUnits="userSpaceOnUse">
<stop stop-color="#FF0000"/>
<stop offset="0.2317" stop-color="#FF1500"/>
<stop offset="0.7367" stop-color="#FF3D00"/>
<stop offset="0.9987" stop-color="#FF4C00"/>
</linearGradient>
<linearGradient id="paint1_linear_5_82" x1="17.7316" y1="24.0769" x2="-0.996637" y2="48.8013" gradientUnits="userSpaceOnUse">
<stop stop-color="#FF0000"/>
<stop offset="0.2317" stop-color="#FF1500"/>
<stop offset="0.7367" stop-color="#FF3D00"/>
<stop offset="0.9987" stop-color="#FF4C00"/>
</linearGradient>
<linearGradient id="paint2_linear_5_82" x1="23.0796" y1="27.1877" x2="3.86827" y2="52.5494" gradientUnits="userSpaceOnUse">
<stop stop-color="#FF0000"/>
<stop offset="0.2317" stop-color="#FF1500"/>
<stop offset="0.7367" stop-color="#FF3D00"/>
<stop offset="0.9987" stop-color="#FF4C00"/>
</linearGradient>
<linearGradient id="paint3_linear_5_82" x1="17.6168" y1="30.3548" x2="5.40877" y2="55.7186" gradientUnits="userSpaceOnUse">
<stop stop-color="#FF8000"/>
<stop offset="0.6388" stop-color="#FF5B00"/>
<stop offset="0.9987" stop-color="#FF4C00"/>
</linearGradient>
<radialGradient id="paint4_radial_5_82" cx="0" cy="0" r="1" gradientUnits="userSpaceOnUse" gradientTransform="translate(0.181652 43.6298) rotate(-135) scale(9.84595 12.5028)">
<stop offset="0.00134333" stop-color="#FFED1C" stop-opacity="0.6"/>
<stop offset="0.9477" stop-color="#FFED1C" stop-opacity="0.026478"/>
<stop offset="0.9914" stop-color="#FFED1C" stop-opacity="0"/>
</radialGradient>
<linearGradient id="paint5_linear_5_82" x1="7.71691" y1="45.4635" x2="18.7334" y2="29.6669" gradientUnits="userSpaceOnUse">
<stop stop-color="#FF8000"/>
<stop offset="0.022669" stop-color="#FE7F02" stop-opacity="0.9773"/>
<stop offset="0.6663" stop-color="#ED582A" stop-opacity="0.3337"/>
<stop offset="1" stop-color="#E74939" stop-opacity="0"/>
</linearGradient>
<linearGradient id="paint6_linear_5_82" x1="20.3736" y1="29.1246" x2="10.4112" y2="38.0504" gradientUnits="userSpaceOnUse">
<stop stop-color="#FFBC47"/>
<stop offset="0.1869" stop-color="#FFB137" stop-opacity="0.8131"/>
<stop offset="0.7223" stop-color="#FF940F" stop-opacity="0.2777"/>
<stop offset="1" stop-color="#FF8900" stop-opacity="0"/>
</linearGradient>
<radialGradient id="paint7_radial_5_82" cx="0" cy="0" r="1" gradientUnits="userSpaceOnUse" gradientTransform="translate(17.8437 31.7688) rotate(-135) scale(7.6164 7.85063)">
<stop offset="0.00134333" stop-color="#FFBC47"/>
<stop offset="0.2941" stop-color="#FFBF4B" stop-opacity="0.7068"/>
<stop offset="0.5624" stop-color="#FEC656" stop-opacity="0.4382"/>
<stop offset="0.8201" stop-color="#FCD368" stop-opacity="0.1801"/>
<stop offset="1" stop-color="#FBE07A" stop-opacity="0"/>
</radialGradient>
<radialGradient id="paint8_radial_5_82" cx="0" cy="0" r="1" gradientUnits="userSpaceOnUse" gradientTransform="translate(17.5626 32.05) rotate(-135) scale(7.38171 7.60871)">
<stop offset="0.00134333" stop-color="white"/>
<stop offset="1" stop-color="white" stop-opacity="0"/>
</radialGradient>
<radialGradient id="paint9_radial_5_82" cx="0" cy="0" r="1" gradientUnits="userSpaceOnUse" gradientTransform="translate(21.1298 33.0604) rotate(-135) scale(9.0679 13.4084)">
<stop offset="0.00134333" stop-color="#FFED1C" stop-opacity="0.6"/>
<stop offset="0.9477" stop-color="#FFED1C" stop-opacity="0.026478"/>
<stop offset="0.9914" stop-color="#FFED1C" stop-opacity="0"/>
</radialGradient>
<radialGradient id="paint10_radial_5_82" cx="0" cy="0" r="1" gradientUnits="userSpaceOnUse" gradientTransform="translate(17.6745 31.9898) rotate(-42.7273) scale(3.63865 2.32769)">
<stop offset="0.00134333" stop-color="white"/>
<stop offset="1" stop-color="white" stop-opacity="0"/>
</radialGradient>
<radialGradient id="paint11_radial_5_82" cx="0" cy="0" r="1" gradientUnits="userSpaceOnUse" gradientTransform="translate(5.29664 42.0754) rotate(-135) scale(3.25302 4.13081)">
<stop offset="0.00134333" stop-color="#FFED1C"/>
<stop offset="0.1997" stop-color="#FFEE2B" stop-opacity="0.8013"/>
<stop offset="0.5839" stop-color="#FFF254" stop-opacity="0.4167"/>
<stop offset="1" stop-color="#FFF686" stop-opacity="0"/>
</radialGradient>
<radialGradient id="paint12_radial_5_82" cx="0" cy="0" r="1" gradientUnits="userSpaceOnUse" gradientTransform="translate(10.5448 44.4248) rotate(162.598) scale(3.146 0.636553)">
<stop offset="0.00134333" stop-color="#FFED1C" stop-opacity="0.6"/>
<stop offset="0.9477" stop-color="#FFED1C" stop-opacity="0.026478"/>
<stop offset="0.9914" stop-color="#FFED1C" stop-opacity="0"/>
</radialGradient>
<radialGradient id="paint13_radial_5_82" cx="0" cy="0" r="1" gradientUnits="userSpaceOnUse" gradientTransform="translate(8.3172 45.9002) rotate(-41.019) scale(3.00271 0.954017)">
<stop offset="0.00134333" stop-color="#FFED1C"/>
<stop offset="0.1997" stop-color="#FFEE2B" stop-opacity="0.8013"/>
<stop offset="0.5839" stop-color="#FFF254" stop-opacity="0.4167"/>
<stop offset="1" stop-color="#FFF686" stop-opacity="0"/>
</radialGradient>
<radialGradient id="paint14_radial_5_82" cx="0" cy="0" r="1" gradientUnits="userSpaceOnUse" gradientTransform="translate(5.43273 42.961) rotate(-135) scale(10.1504 12.8894)">
<stop offset="0.00134333" stop-color="#FF4C00"/>
<stop offset="0.135" stop-color="#FF5B0C" stop-opacity="0.8661"/>
<stop offset="0.3941" stop-color="#FF842C" stop-opacity="0.6067"/>
<stop offset="0.7491" stop-color="#FFC45F" stop-opacity="0.2512"/>
<stop offset="1" stop-color="#FFF686" stop-opacity="0"/>
</radialGradient>
<radialGradient id="paint15_radial_5_82" cx="0" cy="0" r="1" gradientUnits="userSpaceOnUse" gradientTransform="translate(9.55217 32.3127) rotate(-135) scale(5.38767 6.84148)">
<stop offset="0.00134333" stop-color="#FFED1C"/>
<stop offset="0.1997" stop-color="#FFEE2B" stop-opacity="0.8013"/>
<stop offset="0.5839" stop-color="#FFF254" stop-opacity="0.4167"/>
<stop offset="1" stop-color="#FFF686" stop-opacity="0"/>
</radialGradient>
<radialGradient id="paint16_radial_5_82" cx="0" cy="0" r="1" gradientUnits="userSpaceOnUse" gradientTransform="translate(17.5573 32.561) rotate(-135) scale(11.2663 14.3064)">
<stop offset="0.00134333" stop-color="#FFED1C"/>
<stop offset="0.1997" stop-color="#FFEE2B" stop-opacity="0.8013"/>
<stop offset="0.5839" stop-color="#FFF254" stop-opacity="0.4167"/>
<stop offset="1" stop-color="#FFF686" stop-opacity="0"/>
</radialGradient>
<linearGradient id="paint17_linear_5_82" x1="20.4244" y1="40.1338" x2="32.6333" y2="26.9673" gradientUnits="userSpaceOnUse">
<stop stop-color="#BD2719"/>
<stop offset="0.2151" stop-color="#D41A10"/>
<stop offset="0.5049" stop-color="#EC0C07"/>
<stop offset="0.774" stop-color="#FA0302"/>
<stop offset="1" stop-color="#FF0000"/>
</linearGradient>
<linearGradient id="paint18_linear_5_82" x1="27.5227" y1="33.9644" x2="23.6925" y2="37.7263" gradientUnits="userSpaceOnUse">
<stop stop-color="#FC8D41"/>
<stop offset="0.0900324" stop-color="#FC7837"/>
<stop offset="0.294" stop-color="#FD4D24"/>
<stop offset="0.4922" stop-color="#FE2C14"/>
<stop offset="0.6802" stop-color="#FF1409"/>
<stop offset="0.854" stop-color="#FF0502"/>
<stop offset="1" stop-color="#FF0000"/>
</linearGradient>
<radialGradient id="paint19_radial_5_82" cx="0" cy="0" r="1" gradientUnits="userSpaceOnUse" gradientTransform="translate(18.6635 38.4711) rotate(45) scale(16.5175)">
<stop offset="0.00134333" stop-color="#FFED1C"/>
<stop offset="0.1997" stop-color="#FFEE2B" stop-opacity="0.8013"/>
<stop offset="0.5839" stop-color="#FFF254" stop-opacity="0.4167"/>
<stop offset="1" stop-color="#FFF686" stop-opacity="0"/>
</radialGradient>
<linearGradient id="paint20_linear_5_82" x1="27.8083" y1="29.7921" x2="46.7315" y2="7.85918" gradientUnits="userSpaceOnUse">
<stop stop-color="#BD2719"/>
<stop offset="0.2151" stop-color="#D41A10"/>
<stop offset="0.5049" stop-color="#EC0C07"/>
<stop offset="0.774" stop-color="#FA0302"/>
<stop offset="1" stop-color="#FF0000"/>
</linearGradient>
<linearGradient id="paint21_linear_5_82" x1="8.67883" y1="24.8496" x2="20.2084" y2="19.1912" gradientUnits="userSpaceOnUse">
<stop stop-color="#BD2719"/>
<stop offset="0.2151" stop-color="#D41A10"/>
<stop offset="0.5049" stop-color="#EC0C07"/>
<stop offset="0.774" stop-color="#FA0302"/>
<stop offset="1" stop-color="#FF0000"/>
</linearGradient>
<linearGradient id="paint22_linear_5_82" x1="15.2606" y1="21.509" x2="11.6355" y2="25.8179" gradientUnits="userSpaceOnUse">
<stop stop-color="#FC8D41"/>
<stop offset="0.0900324" stop-color="#FC7837"/>
<stop offset="0.294" stop-color="#FD4D24"/>
<stop offset="0.4922" stop-color="#FE2C14"/>
<stop offset="0.6802" stop-color="#FF1409"/>
<stop offset="0.854" stop-color="#FF0502"/>
<stop offset="1" stop-color="#FF0000"/>
</linearGradient>
<radialGradient id="paint23_radial_5_82" cx="0" cy="0" r="1" gradientUnits="userSpaceOnUse" gradientTransform="translate(17.022 31.9044) rotate(45) scale(17.7663)">
<stop offset="0.00134333" stop-color="#FFED1C"/>
<stop offset="0.1997" stop-color="#FFEE2B" stop-opacity="0.8013"/>
<stop offset="0.5839" stop-color="#FFF254" stop-opacity="0.4167"/>
<stop offset="1" stop-color="#FFF686" stop-opacity="0"/>
</radialGradient>
<linearGradient id="paint24_linear_5_82" x1="24.6227" y1="19.119" x2="6.02795" y2="19.9886" gradientUnits="userSpaceOnUse">
<stop stop-color="#BD2719"/>
<stop offset="0.2151" stop-color="#D41A10"/>
<stop offset="0.5049" stop-color="#EC0C07"/>
<stop offset="0.774" stop-color="#FA0302"/>
<stop offset="1" stop-color="#FF0000"/>
</linearGradient>
<linearGradient id="paint25_linear_5_82" x1="31.3502" y1="11.1478" x2="38.8333" y2="18.6309" gradientUnits="userSpaceOnUse">
<stop stop-color="#BBCACC"/>
<stop offset="0.3717" stop-color="white"/>
<stop offset="1" stop-color="#99AFB3"/>
</linearGradient>
<linearGradient id="paint26_linear_5_82" x1="44.0344" y1="10.6409" x2="39.9606" y2="5.35399" gradientUnits="userSpaceOnUse">
<stop stop-color="#008EE6"/>
<stop offset="0.688" stop-color="#80DAFE"/>
<stop offset="0.7325" stop-color="#76D5FB"/>
<stop offset="0.8071" stop-color="#5CC8F3"/>
<stop offset="0.9026" stop-color="#32B2E6"/>
<stop offset="1" stop-color="#0099D6"/>
</linearGradient>
<linearGradient id="paint27_linear_5_82" x1="29.7012" y1="27.3502" x2="21.1973" y2="18.8918" gradientUnits="userSpaceOnUse">
<stop stop-color="#008EE6"/>
<stop offset="0.688" stop-color="#80DAFE"/>
<stop offset="0.7325" stop-color="#76D5FB"/>
<stop offset="0.8071" stop-color="#5CC8F3"/>
<stop offset="0.9026" stop-color="#32B2E6"/>
<stop offset="1" stop-color="#0099D6"/>
</linearGradient>
<radialGradient id="paint28_radial_5_82" cx="0" cy="0" r="1" gradientUnits="userSpaceOnUse" gradientTransform="translate(23.9281 30.155) rotate(45) scale(8.09162 14.81)">
<stop stop-opacity="0.75"/>
<stop offset="1" stop-opacity="0"/>
</radialGradient>
<radialGradient id="paint29_radial_5_82" cx="0" cy="0" r="1" gradientUnits="userSpaceOnUse" gradientTransform="translate(33.3579 28.2488) rotate(45) scale(8.09163 14.81)">
<stop stop-opacity="0.75"/>
<stop offset="1" stop-opacity="0"/>
</radialGradient>
<linearGradient id="paint30_linear_5_82" x1="18.6888" y1="25.0592" x2="24.0227" y2="32.0629" gradientUnits="userSpaceOnUse">
<stop/>
<stop offset="0.1962" stop-color="#4D4D4C"/>
<stop offset="0.7655"/>
</linearGradient>
<linearGradient id="paint31_linear_5_82" x1="18.6888" y1="25.0592" x2="24.0227" y2="32.0629" gradientUnits="userSpaceOnUse">
<stop stop-opacity="0"/>
<stop offset="0.1975" stop-color="#CFDCDE" stop-opacity="0.5"/>
<stop offset="0.7655" stop-opacity="0"/>
</linearGradient>
<linearGradient id="paint32_linear_5_82" x1="29.861" y1="8.42691" x2="42.0929" y2="11.2198" gradientUnits="userSpaceOnUse">
<stop stop-color="#BBCACC"/>
<stop offset="0.3717" stop-color="white"/>
<stop offset="1" stop-color="#99AFB3"/>
</linearGradient>
<radialGradient id="paint33_radial_5_82" cx="0" cy="0" r="1" gradientUnits="userSpaceOnUse" gradientTransform="translate(33.4917 23.7517) rotate(44.2342) scale(5.22075 16.9064)">
<stop stop-color="#440063" stop-opacity="0.75"/>
<stop offset="1" stop-color="#420061" stop-opacity="0"/>
</radialGradient>
<linearGradient id="paint34_linear_5_82" x1="18.0432" y1="33.0344" x2="32.099" y2="23.9717" gradientUnits="userSpaceOnUse">
<stop stop-color="#BD2719"/>
<stop offset="0.2151" stop-color="#D41A10"/>
<stop offset="0.5049" stop-color="#EC0C07"/>
<stop offset="0.774" stop-color="#FA0302"/>
<stop offset="1" stop-color="#FF0000"/>
</linearGradient>
<linearGradient id="paint35_linear_5_82" x1="15.7599" y1="33.5121" x2="23.0092" y2="27.9927" gradientUnits="userSpaceOnUse">
<stop stop-color="#BD2719"/>
<stop offset="0.2151" stop-color="#D41A10"/>
<stop offset="0.5049" stop-color="#EC0C07"/>
<stop offset="0.774" stop-color="#FA0302"/>
<stop offset="1" stop-color="#FF0000"/>
</linearGradient>
<linearGradient id="paint36_linear_5_82" x1="22.6554" y1="28.8656" x2="18.5059" y2="32.7415" gradientUnits="userSpaceOnUse">
<stop stop-color="#FC8D41"/>
<stop offset="0.0900324" stop-color="#FC7837"/>
<stop offset="0.294" stop-color="#FD4D24"/>
<stop offset="0.4922" stop-color="#FE2C14"/>
<stop offset="0.6802" stop-color="#FF1409"/>
<stop offset="0.854" stop-color="#FF0502"/>
<stop offset="1" stop-color="#FF0000"/>
</linearGradient>
<linearGradient id="paint37_linear_5_82" x1="22.5196" y1="31.5523" x2="27.4371" y2="17.4799" gradientUnits="userSpaceOnUse">
<stop stop-color="#BD2719"/>
<stop offset="0.2151" stop-color="#D41A10"/>
<stop offset="0.5049" stop-color="#EC0C07"/>
<stop offset="0.774" stop-color="#FA0302"/>
<stop offset="1" stop-color="#FF0000"/>
</linearGradient>
<linearGradient id="paint38_linear_5_82" x1="18.0432" y1="33.0344" x2="32.099" y2="23.9717" gradientUnits="userSpaceOnUse">
<stop stop-color="#BD2719"/>
<stop offset="0.2151" stop-color="#D41A10"/>
<stop offset="0.5049" stop-color="#EC0C07"/>
<stop offset="0.774" stop-color="#FA0302"/>
<stop offset="1" stop-color="#FF0000"/>
</linearGradient>
<radialGradient id="paint39_radial_5_82" cx="0" cy="0" r="1" gradientUnits="userSpaceOnUse" gradientTransform="translate(17.9217 31.8025) rotate(-39.0499) scale(12.4484 4.17448)">
<stop offset="0.00134333" stop-color="#FFED1C"/>
<stop offset="0.1997" stop-color="#FFEE2B" stop-opacity="0.8013"/>
<stop offset="0.5839" stop-color="#FFF254" stop-opacity="0.4167"/>
<stop offset="1" stop-color="#FFF686" stop-opacity="0"/>
</radialGradient>
<radialGradient id="paint40_radial_5_82" cx="0" cy="0" r="1" gradientUnits="userSpaceOnUse" gradientTransform="translate(29.8804 15.2394) rotate(44.2342) scale(5.22075 16.9064)">
<stop stop-color="white" stop-opacity="0.5"/>
<stop offset="1" stop-color="white" stop-opacity="0"/>
</radialGradient>
<radialGradient id="paint41_radial_5_82" cx="0" cy="0" r="1" gradientUnits="userSpaceOnUse" gradientTransform="translate(28.7233 27.184) rotate(43.8644) scale(1.2676 6.08652)">
<stop stop-color="#440063" stop-opacity="0.75"/>
<stop offset="1" stop-color="#420061" stop-opacity="0"/>
</radialGradient>
<linearGradient id="paint42_linear_5_82" x1="31.915" y1="17.3153" x2="35.8402" y2="8.86263" gradientUnits="userSpaceOnUse">
<stop stop-color="#BD2719"/>
<stop offset="0.2151" stop-color="#D41A10"/>
<stop offset="0.5049" stop-color="#EC0C07"/>
<stop offset="0.774" stop-color="#FA0302"/>
<stop offset="1" stop-color="#FF0000"/>
</linearGradient>
<linearGradient id="paint43_linear_5_82" x1="34.7127" y1="9.17298" x2="32.5752" y2="16.2692" gradientUnits="userSpaceOnUse">
<stop stop-color="#FC8D41"/>
<stop offset="0.0900324" stop-color="#FC7837"/>
<stop offset="0.294" stop-color="#FD4D24"/>
<stop offset="0.4922" stop-color="#FE2C14"/>
<stop offset="0.6802" stop-color="#FF1409"/>
<stop offset="0.854" stop-color="#FF0502"/>
<stop offset="1" stop-color="#FF0000"/>
</linearGradient>
<radialGradient id="paint44_radial_5_82" cx="0" cy="0" r="1" gradientUnits="userSpaceOnUse" gradientTransform="translate(32.5431 12.7653) rotate(44.996) scale(6.90342 6.90294)">
<stop stop-color="#512D00"/>
<stop offset="1"/>
</radialGradient>
<radialGradient id="paint45_radial_5_82" cx="0" cy="0" r="1" gradientUnits="userSpaceOnUse" gradientTransform="translate(33.8871 11.3987) scale(6.05656 6.05656)">
<stop offset="0.4873" stop-color="#F5CBC0" stop-opacity="0"/>
<stop offset="1" stop-color="#E67E62"/>
</radialGradient>
<linearGradient id="paint46_linear_5_82" x1="33.3263" y1="10.5474" x2="33.5842" y2="5.96885" gradientUnits="userSpaceOnUse">
<stop stop-color="#BD2719"/>
<stop offset="0.0422031" stop-color="#B42717"/>
<stop offset="0.257" stop-color="#89250F"/>
<stop offset="0.4654" stop-color="#682408"/>
<stop offset="0.6634" stop-color="#502304"/>
<stop offset="0.8464" stop-color="#412201"/>
<stop offset="1" stop-color="#3C2200"/>
</linearGradient>
<radialGradient id="paint47_radial_5_82" cx="0" cy="0" r="1" gradientUnits="userSpaceOnUse" gradientTransform="translate(25.3429 9.91553) scale(8.2129)">
<stop stop-color="white" stop-opacity="0.5"/>
<stop offset="1" stop-color="white" stop-opacity="0"/>
</radialGradient>
</defs>
</svg>
